<svg xmlns="http://www.w3.org/2000/svg" viewBox="0 0 563.63 149.14"><defs><style>.cls-1{fill:#3686f2;}</style></defs><g id="Layer_2" data-name="Layer 2"><g id="DESIGNED_BY_Kim_Zamorano" data-name="DESIGNED BY Kim Zamorano"><path class="cls-1" d="M33.8,12.73H12.18V30.45H0V50.28H12.18V85.42c0,7.36,2.22,13.35,6.61,17.79s10.43,6.72,17.9,6.72H57.75V90.1H39.05c-2.38,0-3.37-.74-3.91-1.31a5.84,5.84,0,0,1-1.34-4.2V50.28H58V30.45H33.8Z"/><rect class="cls-1" x="66.58" y="30.45" width="21.76" height="79.48"/><path class="cls-1" d="M77.53,2.08a12.74,12.74,0,0,0-9.17,3.86,12.81,12.81,0,0,0,0,18.33,12.81,12.81,0,0,0,18.33,0,12.81,12.81,0,0,0,0-18.33A12.74,12.74,0,0,0,77.53,2.08Z"/><path class="cls-1" d="M154,33.26a40.31,40.31,0,0,0-19.18-4.47,40.44,40.44,0,0,0-19.1,4.46A33.78,33.78,0,0,0,102.29,45.9a36,36,0,0,0-4.85,18.75v45.28h21.62V64.79a16.17,16.17,0,0,1,2.19-8.68A14.88,14.88,0,0,1,127,50.58a16.48,16.48,0,0,1,15.59,0,14.88,14.88,0,0,1,5.78,5.53,16.17,16.17,0,0,1,2.19,8.68v45.14h21.62V64.65a36,36,0,0,0-4.85-18.75A33.78,33.78,0,0,0,154,33.26Z"/><path class="cls-1" d="M235.15,75.59A16.17,16.17,0,0,1,233,84.27a14.91,14.91,0,0,1-5.79,5.53,16.33,16.33,0,0,1-7.93,2,16.1,16.1,0,0,1-7.79-2,14.42,14.42,0,0,1-5.69-5.49,16.56,16.56,0,0,1-2.14-8.72V30.45H181.87V75.73a36.19,36.19,0,0,0,4,17.08,33.4,33.4,0,0,0,10.92,12.27,35.81,35.81,0,0,0,11.82,5.18v38.88H230.2V110.21A37.27,37.27,0,0,0,242,104.94a32.93,32.93,0,0,0,10.86-12.21,36.34,36.34,0,0,0,3.9-17V30.45H235.15Z"/><path class="cls-1" d="M370.65,84.72a7.94,7.94,0,0,1-.89,4,5.79,5.79,0,0,1-5.32,3,6.94,6.94,0,0,1-3.32-.81,5.72,5.72,0,0,1-2.27-2.21,7.91,7.91,0,0,1-.9-4V57.32c0-6.2-1.22-11.48-3.63-15.7a23.86,23.86,0,0,0-10.18-9.73,32.67,32.67,0,0,0-27.78,0,23.84,23.84,0,0,0-10.17,9.73c-2.41,4.21-3.63,9.5-3.63,15.7v27.4a7.35,7.35,0,0,1-.93,4,6.16,6.16,0,0,1-2.38,2.3,6.94,6.94,0,0,1-6.45,0,5.14,5.14,0,0,1-2.16-2.13,8.24,8.24,0,0,1-.92-4.14V30.45H268.09V82.51c0,6.49,1.28,12,3.79,16.28a24,24,0,0,0,10.43,9.8,31.83,31.83,0,0,0,13.9,3,31.22,31.22,0,0,0,13.62-3,24.33,24.33,0,0,0,10.47-9.76c2.58-4.33,3.88-9.82,3.88-16.32V55.38a8.3,8.3,0,0,1,.85-4.12,4.46,4.46,0,0,1,2-1.91,7.2,7.2,0,0,1,3.25-.73,7,7,0,0,1,3.14.7,5.22,5.22,0,0,1,2.07,2,7.84,7.84,0,0,1,.87,4.05V82.51c0,6.51,1.3,12,3.88,16.32a24.23,24.23,0,0,0,10.56,9.77,32.9,32.9,0,0,0,27.43,0,24,24,0,0,0,10.43-9.8c2.51-4.31,3.79-9.79,3.79-16.28V30.45H370.65Z"/><path class="cls-1" d="M458.83,34.21c-5.56-3.6-12.49-5.42-20.62-5.42a36.77,36.77,0,0,0-20.1,5.54,37.87,37.87,0,0,0-13.47,14.94,45.44,45.44,0,0,0-4.78,20.92,38.51,38.51,0,0,0,5.74,21,38.06,38.06,0,0,0,15.87,13.94,51.38,51.38,0,0,0,22.56,4.8H466.6V90.1H443.75A28.22,28.22,0,0,1,433,88.15a17.75,17.75,0,0,1-7.41-5.44,14.33,14.33,0,0,1-2.18-3.78H474l.77-3.49a20.34,20.34,0,0,0,.45-3.68c.05-1.17.07-2.29.07-3.37a47.35,47.35,0,0,0-4-19.62A33.52,33.52,0,0,0,458.83,34.21ZM438.21,48.34a16.7,16.7,0,0,1,6.28,1,12.62,12.62,0,0,1,4.21,2.7A14.52,14.52,0,0,1,451.52,56a18.53,18.53,0,0,1,1.56,4.68l.06.35H423c.17-.61.36-1.21.58-1.81a18.16,18.16,0,0,1,3.22-5.62,15.71,15.71,0,0,1,4.92-3.89A14.19,14.19,0,0,1,438.21,48.34Z"/><path class="cls-1" d="M558.57,48A36.52,36.52,0,0,0,544.64,33.8a39.43,39.43,0,0,0-19.78-5A34.42,34.42,0,0,0,513,30.86a33.92,33.92,0,0,0-9.18,5V0H482.21V69.78c0,8.59,1.8,16.1,5.36,22.34a37,37,0,0,0,14.68,14.51,42.64,42.64,0,0,0,20.53,5,45,45,0,0,0,16.27-2.86,36.2,36.2,0,0,0,13.08-8.59,39.74,39.74,0,0,0,8.5-13.47,47.89,47.89,0,0,0,3-17.31A43.38,43.38,0,0,0,558.57,48Zm-45.2,3.14a18.07,18.07,0,0,1,9.55-2.55,17.35,17.35,0,0,1,9.53,2.63,19.4,19.4,0,0,1,6.83,7.48,24.11,24.11,0,0,1,2.59,11.46,24.14,24.14,0,0,1-2.64,11.7,18.62,18.62,0,0,1-6.9,7.32,18,18,0,0,1-9.55,2.56,17.87,17.87,0,0,1-9.42-2.56,18.14,18.14,0,0,1-6.8-7.28A24.32,24.32,0,0,1,504,70.33a25.17,25.17,0,0,1,2.6-11.83A18.09,18.09,0,0,1,513.37,51.17Z"/></g></g></svg>