<svg xmlns="http://www.w3.org/2000/svg" viewBox="0 0 202.53 202.71"><defs><style>.cls-1{fill:#3686f2;}</style></defs><g id="Layer_2" data-name="Layer 2"><g id="DESIGNED_BY_Kim_Zamorano" data-name="DESIGNED BY Kim Zamorano"><path class="cls-1" d="M175.8,110.79v26.5c0,5.23-1,9.65-3.05,13.12a19.36,19.36,0,0,1-8.4,7.9,26.54,26.54,0,0,1-22.1,0,19.49,19.49,0,0,1-8.51-7.87c-2.07-3.48-3.13-7.9-3.13-13.15V115.44a6.27,6.27,0,0,0-.7-3.26,4.1,4.1,0,0,0-1.67-1.62,5.53,5.53,0,0,0-2.52-.57,5.85,5.85,0,0,0-2.62.59,3.67,3.67,0,0,0-1.59,1.54,6.69,6.69,0,0,0-.68,3.32v21.85c0,5.24-1,9.67-3.12,13.15a19.71,19.71,0,0,1-8.44,7.87,25.18,25.18,0,0,1-11,2.41,25.67,25.67,0,0,1-11.19-2.41,19.31,19.31,0,0,1-8.4-7.9c-2-3.47-3-7.88-3-13.12V111.6a.27.27,0,0,0-.27-.27H56c-5.81-.09-10.51-1.9-14-5.39s-5.33-8.41-5.33-14.34V63.29H26.91v-16h9.81v-24a101.36,101.36,0,1,0,165.65,86.41H176.9A1.1,1.1,0,0,0,175.8,110.79Z"/><path class="cls-1" d="M73.66,47.32v16H54.14V90.93a4.73,4.73,0,0,0,1.08,3.39,3.67,3.67,0,0,0,2.64,1H85.52a7.55,7.55,0,0,1,7.54,7.55v8.41h0v0h0v27.73a6.65,6.65,0,0,0,.74,3.33,4.17,4.17,0,0,0,1.74,1.72,5.65,5.65,0,0,0,5.2,0,5.06,5.06,0,0,0,1.92-1.85,6,6,0,0,0,.74-3.18V117a25.32,25.32,0,0,1,2.92-12.65,19.27,19.27,0,0,1,8.2-7.83,26.29,26.29,0,0,1,22.38,0,19.21,19.21,0,0,1,8.2,7.83A25.32,25.32,0,0,1,148,117v22.08a6.35,6.35,0,0,0,.73,3.24,4.51,4.51,0,0,0,1.82,1.78,5.56,5.56,0,0,0,2.68.65,5,5,0,0,0,2.49-.6,4.85,4.85,0,0,0,1.79-1.83,6.35,6.35,0,0,0,.73-3.24V103.45a8.09,8.09,0,0,1,8.09-8.09h0v0h36.17A101.38,101.38,0,0,0,54.14,11.65V47.32Z"/></g></g></svg>